HIERARCHY
ROOT Hips
{
	OFFSET	0.00	0.00	0.00
	CHANNELS 6 Xposition Yposition Zposition Zrotation Xrotation Yrotation
	JOINT LeftUpLeg
	{
		OFFSET	 0.126116	-0.014019	-0.065224
		CHANNELS 3 Zrotation Xrotation Yrotation
		JOINT LeftLeg
		{
			OFFSET	 0.000000	 0.000000	 0.569914
			CHANNELS 3 Zrotation Xrotation Yrotation
			JOINT LeftFoot
			{
				OFFSET	 0.000000	 0.000000	 0.544423
				CHANNELS 3 Zrotation Xrotation Yrotation
				JOINT LeftToeBase
				{
					OFFSET	 0.000000	 0.000000	 0.207117
					CHANNELS 3 Zrotation Xrotation Yrotation
					End Site
					{
						OFFSET	 0.000000	 0.000000	 0.207117
					}
				}
			}
		}
	}
	JOINT RightUpLeg
	{
		OFFSET	-0.124023	-0.008373	-0.065224
		CHANNELS 3 Zrotation Xrotation Yrotation
		JOINT RightLeg
		{
			OFFSET	 0.000000	 0.000000	 0.570047
			CHANNELS 3 Zrotation Xrotation Yrotation
			JOINT RightFoot
			{
				OFFSET	 0.000000	 0.000000	 0.544354
				CHANNELS 3 Zrotation Xrotation Yrotation
				JOINT RightToeBase
				{
					OFFSET	 0.000000	 0.000000	 0.207540
					CHANNELS 3 Zrotation Xrotation Yrotation
					End Site
					{
						OFFSET	 0.000000	 0.000000	 0.207540
					}
				}
			}
		}
	}
	JOINT Spine
	{
		OFFSET	 0.000184	-0.007763	 0.117403
		CHANNELS 3 Zrotation Xrotation Yrotation
		JOINT Spine1
		{
			OFFSET	 0.000000	 0.000000	 0.137269
			CHANNELS 3 Zrotation Xrotation Yrotation
			JOINT Spine2
			{
				OFFSET	 0.000000	 0.000000	 0.156879
				CHANNELS 3 Zrotation Xrotation Yrotation
				JOINT LeftShoulder
				{
					OFFSET	 0.080501	-0.002496	 0.160144
					CHANNELS 3 Zrotation Xrotation Yrotation
					JOINT LeftArm
					{
						OFFSET	 0.000000	 0.000000	 0.164363
						CHANNELS 3 Zrotation Xrotation Yrotation
						JOINT LeftForeArm
						{
							OFFSET	 0.000000	 0.000000	 0.364576
							CHANNELS 3 Zrotation Xrotation Yrotation
							JOINT LeftHand
							{
								OFFSET	 0.000000	 0.000000	 0.360812
								CHANNELS 3 Zrotation Xrotation Yrotation
								JOINT LeftHandIndex1
								{
									OFFSET	 0.000000	 0.000000	 0.086006
									CHANNELS 3 Zrotation Xrotation Yrotation
									JOINT LeftHandIndex2
									{
										OFFSET	 0.000000	 0.000000	 0.047236
										CHANNELS 3 Zrotation Xrotation Yrotation
										JOINT LeftHandIndex3
										{
											OFFSET	-0.004284	-0.000551	 0.038166
											CHANNELS 3 Zrotation Xrotation Yrotation
											End Site
											{
												OFFSET	-0.004284	-0.000551	 0.038166
											}
										}
									}
								}
							}
						}
					}
				}
				JOINT Neck
				{
					OFFSET	 0.000000	 0.000000	 0.176489
					CHANNELS 3 Zrotation Xrotation Yrotation
					JOINT Head
					{
						OFFSET	 0.000000	-0.001747	 0.077940
						CHANNELS 3 Zrotation Xrotation Yrotation
						End Site
						{
							OFFSET	 0.000000	-0.001747	 0.077940
						}
					}
				}
				JOINT RightShoulder
				{
					OFFSET	-0.080363	 0.000306	 0.159706
					CHANNELS 3 Zrotation Xrotation Yrotation
					JOINT RightArm
					{
						OFFSET	 0.000000	 0.000000	 0.164196
						CHANNELS 3 Zrotation Xrotation Yrotation
						JOINT RightForeArm
						{
							OFFSET	 0.000000	 0.000000	 0.365611
							CHANNELS 3 Zrotation Xrotation Yrotation
							JOINT RightHand
							{
								OFFSET	 0.000000	 0.000000	 0.360648
								CHANNELS 3 Zrotation Xrotation Yrotation
								JOINT RightHandIndex1
								{
									OFFSET	 0.000000	 0.000000	 0.069977
									CHANNELS 3 Zrotation Xrotation Yrotation
									JOINT RightHandIndex2
									{
										OFFSET	 0.000000	 0.000000	 0.052305
										CHANNELS 3 Zrotation Xrotation Yrotation
										JOINT RightHandIndex3
										{
											OFFSET	 0.009002	-0.000782	 0.042196
											CHANNELS 3 Zrotation Xrotation Yrotation
											End Site
											{
												OFFSET	 0.009002	-0.000782	 0.042196
											}
										}
									}
								}
							}
						}
					}
				}
			}
		}
	}
}
MOTION
Frames:    9
Frame Time: 0.03333334
-0.032778	 0.293173	 0.979175	 0.021730	 33.866130	-6.026311	 79.931960	-83.584950	-108.049200	 9.404011	-77.117190	 9.577991	 58.768510	 80.371860	-66.946820	-2.385832	 28.452790	-0.000001	 106.944800	-83.589380	-74.050830	-22.540360	-79.012820	-17.093990	-12.751240	 80.219960	 32.226860	 2.384659	 28.388700	-0.000001	-3.149346	 14.967260	 2.370205	-3.340101	 20.754140	 5.335362	 3.563082	 0.669482	 0.514976	-99.118840	 68.196300	 156.933200	 4.910820	-8.205695	-49.426300	-26.510580	 2.933237	-8.404362	-24.813560	-18.700060	-18.361620	-2.027600	 6.559038	 9.033609	-5.188889	 0.308190	 3.541030	-5.234859	 0.342567	 0.430617	 0.248466	 17.018540	-5.736874	 5.744765	-25.373630	 1.782323	 97.419000	 64.619900	-159.272900	-4.506897	 5.149343	 53.053300	 8.213754	 11.271900	 35.008580	 9.035315	-17.625970	 14.144740	 1.803333	 3.979147	-15.098590	 4.898592	 3.004813	-9.310344	 5.224449	 0.395017	 2.014677
-0.031434	 0.291443	 0.992374	-0.096730	 32.720950	-5.553144	 61.487960	-82.663480	-126.619000	 7.953033	-75.471100	 8.105541	 55.818140	 80.326470	-63.754260	-2.385832	 28.452790	-0.000001	 82.481830	-84.676350	-97.958920	-20.651750	-77.326890	-15.145280	-12.567670	 79.975380	 31.849460	 2.384659	 28.388700	-0.000001	-1.506409	 14.798450	 2.239947	-3.183190	 21.463350	 5.041299	 3.669504	-0.668674	 0.302418	-98.683250	 68.570730	 157.717100	 5.143416	-5.752446	-50.501520	-26.091390	 2.911895	-8.380777	-25.507430	-19.068330	-19.050380	-2.027600	 6.559038	 9.033609	-5.188889	 0.308190	 3.541030	-5.234859	 0.342567	 0.430617	-0.320423	 12.788590	-4.482534	 5.385152	-21.412070	 0.827883	 97.177200	 64.278520	-160.201300	-5.606185	 5.018614	 52.735070	 8.408194	 11.864600	 36.255990	 9.010460	-17.631590	 15.420680	 1.803333	 3.979147	-15.098590	 4.898592	 3.004813	-9.310344	 5.224449	 0.395017	 2.014677
-0.029700	 0.289800	 1.007032	-0.175193	 31.427280	-5.074829	 46.908220	-80.957210	-141.288500	 6.831770	-73.558300	 6.954884	 52.201790	 80.193720	-59.925720	-2.385832	 28.452790	-0.000001	 50.541550	-84.360180	-129.245900	-19.114860	-75.397190	-13.534210	-12.196640	 79.700080	 31.255320	 2.384659	 28.388700	-0.000001	 0.090605	 14.643940	 2.118112	-3.058613	 22.081110	 4.751013	 3.713571	-2.127275	 0.085151	-97.991830	 69.450510	 158.565600	 5.831216	-2.620123	-51.674100	-25.559900	 2.876838	-8.339452	-26.278730	-19.523300	-20.110430	-2.027600	 6.559038	 9.033609	-5.188889	 0.308190	 3.541030	-5.234859	 0.342567	 0.430617	-0.764207	 7.737049	-3.353699	 5.052371	-16.694270	-0.166072	 96.870190	 64.173610	-161.070900	-6.943203	 5.424709	 52.131740	 8.179842	 12.307320	 37.729350	 8.773147	-17.422800	 16.468070	 1.803333	 3.979147	-15.098590	 4.898592	 3.004813	-9.310344	 5.224449	 0.395017	 2.014677
-0.027513	 0.287897	 1.023008	-0.242769	 29.949940	-4.551277	 36.584960	-78.569040	-151.740400	 5.999384	-71.419820	 6.084094	 48.656860	 80.002300	-56.151410	-2.385833	 28.452760	 0.000004	 26.130050	-82.392280	-152.953100	-17.946120	-73.207150	-12.270890	-11.614830	 79.438130	 30.481360	 2.384659	 28.388700	-0.000001	 1.637217	 14.489710	 1.984231	-2.967685	 22.559320	 4.481739	 3.730712	-3.687444	-0.121046	-96.951310	 71.025250	 159.437700	 6.915093	 1.220059	-53.054490	-24.920270	 2.829483	-8.281984	-27.147890	-20.048010	-21.452810	-2.027600	 6.559038	 9.033609	-5.188889	 0.308190	 3.541030	-5.234859	 0.342567	 0.430617	-1.072180	 2.008145	-2.389553	 4.788614	-11.363520	-1.127684	 96.411140	 64.730100	-161.787400	-8.449794	 6.901869	 51.415070	 7.466512	 12.566340	 39.549420	 8.539777	-17.331910	 17.259520	 1.803333	 3.979147	-15.098590	 4.898592	 3.004813	-9.310344	 5.224449	 0.395017	 2.014677
-0.025304	 0.285927	 1.037725	-0.245280	 28.556530	-4.030546	 30.280230	-76.120540	-158.188000	 5.660175	-69.400150	 5.690811	 45.797960	 79.765300	-53.135930	-2.385833	 28.452760	 0.000004	 13.502770	-79.828960	-164.926500	-17.262100	-71.085690	-11.479460	-10.921280	 79.222580	 29.734170	 2.384659	 28.388700	-0.000001	 2.981179	 14.391060	 1.822321	-2.857573	 22.927750	 4.164382	 3.748505	-5.103194	-0.211956	-95.516510	 73.345540	 160.089000	 8.037326	 5.310078	-54.840110	-24.268440	 2.776939	-8.216614	-28.035780	-20.605560	-22.589970	-2.027600	 6.559038	 9.033609	-5.188889	 0.308190	 3.541030	-5.234859	 0.342567	 0.430617	-1.290021	-3.259923	-2.175095	 4.743993	-6.404655	-1.493900	 95.663330	 66.161470	-162.544100	-9.853449	 9.302094	 51.451050	 6.606145	 12.665100	 41.325770	 8.572112	-17.833580	 17.881850	 1.803333	 3.979147	-15.098590	 4.898592	 3.004813	-9.310344	 5.224449	 0.395017	 2.014677
-0.022305	 0.282376	 1.055657	-0.089963	 26.856270	-3.379242	 24.831640	-72.956920	-163.746600	 5.534743	-66.891980	 5.476823	 42.287320	 79.363240	-49.454900	-2.385833	 28.452750	 0.000004	 4.875310	-76.237980	-172.733300	-15.139060	-68.522980	-9.311528	-10.318800	 79.109510	 28.549870	 2.384659	 28.388700	-0.000001	 4.473279	 14.242120	 1.542148	-2.787296	 23.356010	 3.713162	 3.762539	-6.889938	-0.224287	-93.686100	 76.039410	 160.813700	 9.935738	 9.619475	-57.052310	-23.392540	 2.701892	-8.120938	-28.626830	-21.200640	-23.917350	-2.027600	 6.559038	 9.033609	-5.188889	 0.308190	 3.541030	-5.234859	 0.342567	 0.430617	-1.541931	-10.032470	-2.439842	 4.745903	-0.079861	-1.677951	 94.744610	 67.969060	-163.451100	-11.836720	 12.153980	 51.588540	 5.557114	 12.803990	 43.720050	 8.580318	-18.455440	 18.311580	 1.803333	 3.979147	-15.098590	 4.898592	 3.004813	-9.310344	 5.224449	 0.395017	 2.014677
-0.018918	 0.276879	 1.074876	 0.398979	 25.317960	-2.864831	 21.250970	-69.565440	-167.278100	 5.369480	-64.046260	 5.207679	 39.321900	 78.783520	-46.210890	-2.385833	 28.452750	 0.000004	-0.098925	-72.380130	-176.719200	-12.872160	-65.690550	-7.048090	-8.811277	 78.875940	 26.317420	 2.384659	 28.388700	-0.000001	 5.988137	 13.633920	 1.050408	-2.818813	 23.461250	 3.235294	 3.783877	-8.589031	-0.330200	-93.390960	 76.291040	 162.107700	 11.872540	 12.021770	-58.006280	-22.425700	 2.612411	-8.003331	-28.330260	-21.461060	-25.209720	-2.027600	 6.559038	 9.033609	-5.188889	 0.308190	 3.541030	-5.234859	 0.342567	 0.430617	-1.668652	-13.684460	-1.878724	 4.738463	 3.275184	-2.177207	 94.082440	 69.136680	-164.314100	-13.831320	 14.687000	 50.774580	 4.381755	 12.923910	 46.553880	 8.364894	-18.807290	 18.543500	 1.803333	 3.979147	-15.098590	 4.898592	 3.004813	-9.310344	 5.224449	 0.395017	 2.014677
-0.016034	 0.269241	 1.095979	 1.040267	 23.934100	-2.508864	 18.634490	-65.883090	-169.746900	 5.119241	-60.681350	 4.830306	 35.697750	 78.060310	-42.255620	-2.385833	 28.452750	 0.000004	-3.494426	-68.306820	-179.011900	-10.738210	-62.388020	-4.958424	-7.223558	 78.325330	 23.883150	 2.384659	 28.388700	-0.000001	 7.599290	 12.489510	 0.596130	-2.779088	 23.283660	 2.722706	 3.785339	-10.214560	-0.466711	-94.058330	 74.855650	 163.710100	 13.754760	 13.091530	-58.028190	-21.330940	 2.505760	-7.858761	-27.296220	-21.411510	-26.129750	-2.027600	 6.559038	 9.033609	-5.188889	 0.308190	 3.541030	-5.234859	 0.342567	 0.430617	-1.701891	-14.820990	-0.996142	 4.751229	 4.362769	-2.663760	 93.834200	 69.035990	-165.356200	-15.555580	 16.336970	 48.638960	 3.038347	 13.036460	 50.063690	 7.824145	-18.758570	 18.654810	 1.803333	 3.979147	-15.098590	 4.898592	 3.004813	-9.310344	 5.224449	 0.395017	 2.014677
-0.014446	 0.259820	 1.117777	 1.574057	 22.596430	-2.195340	 16.411680	-61.956890	-171.868000	 4.828991	-57.015010	 4.403667	 30.925230	 77.255560	-37.159130	-2.385833	 28.452750	 0.000004	-6.167843	-64.030540	 179.392000	-8.890216	-58.738080	-3.201561	-6.464007	 77.531900	 22.133000	 2.384659	 28.388700	-0.000001	 9.177452	 11.041850	 0.428522	-2.488871	 22.919510	 2.167048	 3.708418	-11.721210	-0.486650	-94.462720	 73.573030	 165.097200	 15.699160	 13.881300	-58.033450	-20.091790	 2.381122	-7.684023	-25.861580	-21.200240	-26.123570	-2.027600	 6.559038	 9.033609	-5.188889	 0.308190	 3.541030	-5.234859	 0.342567	 0.430617	-1.814234	-15.291520	-0.957234	 4.804649	 5.090691	-2.509930	 94.002700	 67.096340	-166.745500	-16.861000	 16.435480	 45.538390	 1.596161	 13.117300	 54.167330	 6.926306	-18.218320	 18.691920	 1.803333	 3.979147	-15.098590	 4.898592	 3.004813	-9.310344	 5.224449	 0.395017	 2.014677
